<?xml version="1.0" encoding="utf-8"?>
<!-- Generator: Adobe Illustrator 27.5.0, SVG Export Plug-In . SVG Version: 6.00 Build 0)  -->
<svg version="1.1" xmlns="http://www.w3.org/2000/svg" xmlns:xlink="http://www.w3.org/1999/xlink" x="0px" y="0px"
	 viewBox="0 0 500 500" style="enable-background:new 0 0 500 500;" xml:space="preserve">
<g id="BACKGROUND">
	<rect style="fill:#FFFFFF;" width="500" height="500"/>
</g>
<g id="OBJECTS">
	<g>
		<g>
			<path style="fill:#DCEDF9;" d="M425.571,424.007c-22.228-16.888-60.245-58.794-10.182-124.579
				c61.909-81.351-12.233-114.726-83.299-111.243c-57.174,2.802-121.519-69.075-185.706-56.228
				c-85.195,17.051-29.877,90.417-87.643,129.944C9.478,295.61,30.628,398.323,94.745,424.007H425.571z"/>
		</g>
		<path style="fill:#DCEDF9;" d="M463.989,274.431c-0.343-12.063-11.581-16.743-19.082-8.009c-4.303,5.01-8.405,12.197-9.172,21.807
			c-1.717,21.508,17.099,15.275,24.13,3.76C462.865,287.077,464.163,280.529,463.989,274.431z"/>
		<path style="fill:#DCEDF9;" d="M235.831,114.982c-12.064,0.321-16.764,11.55-8.044,19.067c5.002,4.312,12.181,8.427,21.791,9.212
			c21.504,1.757,15.307-17.071,3.804-24.123C248.475,116.129,241.929,114.819,235.831,114.982z"/>
		<path style="fill:#DCEDF9;" d="M70.632,232.174c4.745-11.096-3.497-20.055-13.968-15.27c-6.007,2.745-12.743,7.551-17.468,15.955
			c-10.574,18.807,9.122,21.036,20.333,13.527C64.31,243.184,68.233,237.783,70.632,232.174z"/>
	</g>
	<g>
		<ellipse style="fill:#DCEDF9;" cx="251.604" cy="430.275" rx="203.246" ry="16.36"/>
	</g>
	<g>
		<g>
			<g>
				<g>
					<path style="fill:#007FE9;" d="M390.911,427.433c0.302,1.579,0.782,3.046,1.408,4.397h33.01
						c1.301-3.097,1.296-6.322-0.627-9.061c-12.027-17.129,2.811-16.786,5.161-28.493c2.577-12.844-9.657-6.204-5.947-23.404
						c5.03-23.309-5.874-34.504-11.391-21.049c-5.205,12.692-2.529,17.888-15.263,27.405c-10.559,7.891,7.871,20.522-2.594,32.999
						C390.208,415.544,389.852,421.895,390.911,427.433z"/>
				</g>
				<g>
					<g>
						<path style="fill:#0050DB;" d="M405.118,431.83c3.749-30.2,10.337-63.203,10.425-63.644c0.09-0.451-0.201-0.89-0.652-0.98
							c-0.451-0.091-0.89,0.201-0.98,0.652c-0.09,0.444-6.713,33.634-10.47,63.972H405.118z"/>
					</g>
				</g>
			</g>
			<g>
				<g>
					<path style="fill:#00A8FF;" d="M445.207,431.83c-0.066-0.248-0.138-0.496-0.223-0.744c-8.69-25.469,9.504-19.711,16.613-33.319
						c7.799-14.93-9.692-11.13,1.072-31.029c14.588-26.967,5.152-44.706-6.495-30.079c-10.988,13.797-9.552,21.173-28.692,28.344
						c-15.872,5.945,2.34,28.164-15.064,39.805c-7.418,4.962-10.14,12.673-10.823,19.891c-0.236,2.496-0.094,4.885,0.368,7.132
						H445.207z"/>
				</g>
				<g>
					<g>
						<path style="fill:#007FE9;" d="M419.028,431.83c15.248-34.911,34.012-70.921,34.27-71.417
							c0.274-0.524,0.072-1.171-0.452-1.444c-0.524-0.274-1.171-0.071-1.444,0.452c-0.264,0.503-19.352,37.141-34.709,72.409
							H419.028z"/>
					</g>
				</g>
			</g>
		</g>
		<g>
			<g>
				<g>
					<path style="fill:#007FE9;" d="M111.834,427.433c-0.302,1.579-0.782,3.046-1.408,4.397h-33.01
						c-1.301-3.097-1.296-6.322,0.627-9.061c12.027-17.129-2.811-16.786-5.161-28.493c-2.577-12.844,9.657-6.204,5.947-23.404
						c-5.03-23.309,5.874-34.504,11.391-21.049c5.205,12.692,2.529,17.888,15.262,27.405c10.559,7.891-7.871,20.522,2.594,32.999
						C112.538,415.544,112.894,421.895,111.834,427.433z"/>
				</g>
				<g>
					<g>
						<path style="fill:#0050DB;" d="M97.628,431.83c-3.749-30.2-10.337-63.203-10.425-63.644c-0.09-0.451,0.201-0.89,0.652-0.98
							c0.451-0.091,0.89,0.201,0.98,0.652c0.09,0.444,6.713,33.634,10.47,63.972H97.628z"/>
					</g>
				</g>
			</g>
			<g>
				<g>
					<path style="fill:#00A8FF;" d="M57.538,431.83c0.066-0.248,0.138-0.496,0.223-0.744c8.69-25.469-9.504-19.711-16.613-33.319
						c-7.799-14.93,9.692-11.13-1.072-31.029c-14.588-26.967-5.152-44.706,6.495-30.079c10.988,13.797,9.552,21.173,28.692,28.344
						c15.872,5.945-2.34,28.164,15.064,39.805c7.418,4.962,10.14,12.673,10.823,19.891c0.236,2.496,0.094,4.885-0.368,7.132H57.538z
						"/>
				</g>
				<g>
					<g>
						<path style="fill:#007FE9;" d="M83.718,431.83c-15.248-34.911-34.011-70.921-34.27-71.417
							c-0.274-0.524-0.071-1.171,0.452-1.444c0.524-0.274,1.171-0.071,1.444,0.452c0.264,0.503,19.352,37.141,34.709,72.409H83.718z
							"/>
					</g>
				</g>
			</g>
		</g>
		<g>
			<path style="fill:#00A8FF;" d="M153.439,431.82h2.509l-3.856-10.803c0.498-3.844,2.056-11.144,6.928-19.273
				c7.168-11.962,9.006-20.436,3.004-20.388c-7.785,0.061-13.366,18.999-11.738,34.602l-9.18-25.716
				c0.373-3.326,1.736-9.682,6.574-17.673c6.403-10.575,11.345-22.977,3.465-22.303c-7.907,0.676-13.583,19.718-11.635,35.508
				l-7.655-21.445c0.227-2.083,1.076-6.108,4.147-11.182c4.035-6.665,7.15-14.481,2.184-14.056
				c-4.998,0.427-8.581,12.495-7.322,22.462l-1.621-4.54c-1.487-13.704-10.938-28.871-16.714-27.609
				c-5.77,1.262-0.113,9.969,7.368,17.709c3.229,3.341,5.278,7.004,6.718,9.567l3.15,8.823c-5.623-6.859-13.86-11.781-17.429-9.337
				c-4.112,2.816,3.248,6.893,10.591,9.496c3.932,1.393,6.683,3.082,8.491,4.473l9.717,27.223
				c-8.84-12.224-23.592-21.666-29.707-17.478c-6.525,4.468,5.153,10.937,16.806,15.067c7.493,2.656,12.287,5.989,15.026,8.364
				l7.567,21.198c-8.53-13.358-24.842-24.36-31.355-19.9c-6.525,4.468,5.153,10.937,16.806,15.067
				c8.698,3.083,13.76,7.078,16.191,9.429L153.439,431.82z"/>
		</g>
		<g>
			<path style="fill:#00A8FF;" d="M342.703,380.557l-2.468-0.456l5.755-9.922c0.209-3.871,0.004-11.332-3.309-20.212
				c-4.875-13.066-5.141-21.732,0.752-20.595c7.644,1.475,9.69,21.111,5.254,36.159l13.701-23.619
				c0.238-3.338,0.053-9.836-3.253-18.574c-4.374-11.563-6.98-24.656,0.646-22.562c7.653,2.102,9.773,21.858,4.988,37.031
				l11.425-19.696c0.155-2.09,0.052-6.202-2.046-11.749c-2.757-7.287-4.399-15.539,0.407-14.219
				c4.837,1.329,6.167,13.846,3.118,23.419l2.419-4.17c3.953-13.205,16.004-26.402,21.453-24.111
				c5.445,2.289-1.701,9.823-10.464,16.075c-3.782,2.698-6.462,5.928-8.345,8.187l-4.701,8.104
				c6.776-5.723,15.77-9.066,18.835-6.014c3.532,3.517-4.447,6.188-12.141,7.413c-4.119,0.656-7.132,1.816-9.162,2.855
				l-14.503,25.003c10.915-10.414,27.136-17.017,32.388-11.788c5.604,5.58-7.055,9.819-19.264,11.762
				c-7.851,1.25-13.171,3.656-16.296,5.494l-11.294,19.47c10.816-11.585,28.856-19.439,34.45-13.869
				c5.604,5.58-7.055,9.819-19.264,11.762c-9.113,1.451-14.818,4.46-17.635,6.329L342.703,380.557z"/>
		</g>
	</g>
	<g>
		
			<rect x="248.94" y="340.75" transform="matrix(0.0014 -1 1 0.0014 -109.9941 686.2726)" style="fill:#FFAA01;" width="79.387" height="114.926"/>
		<polygon style="fill:#F88800;" points="346.15,358.605 346.143,363.694 288.61,414.54 231.221,363.529 231.228,358.44 
			288.614,409.625 		"/>
		<g>
			<polygon style="fill:#F88800;" points="277.56,399.587 234.442,437.828 231.114,437.823 231.116,435.799 275.089,396.802 			"/>
		</g>
		<g>
			<g>
				<polygon style="fill:#F88800;" points="346.042,436.234 346.039,437.989 342.409,437.984 299.402,399.619 301.882,396.841 				
					"/>
			</g>
		</g>
		<polygon style="fill:#FDCC50;" points="231.225,358.436 288.614,409.625 346.15,358.602 		"/>
	</g>
	<g>
		<g>
			<g>
				<g>
					<path style="fill:#DCEDF9;" d="M276.432,86.742c-0.111,0.012-0.226-0.004-0.336-0.05c-1.164-0.491-1.846-0.72-1.853-0.723
						c-0.357-0.119-0.549-0.505-0.43-0.862c0.12-0.357,0.505-0.549,0.862-0.43c0.029,0.01,0.733,0.245,1.952,0.76
						c0.346,0.146,0.509,0.546,0.363,0.892C276.889,86.566,276.671,86.717,276.432,86.742z"/>
				</g>
			</g>
			<g>
				<g>
					<path style="fill:#DCEDF9;" d="M311.142,123.272c0.463,1.236,0.897,2.51,1.29,3.788c0.097,0.316,0.405,0.511,0.722,0.478
						c0.043-0.005,0.086-0.013,0.129-0.027c0.359-0.11,0.561-0.492,0.451-0.851c-0.401-1.304-0.843-2.604-1.316-3.866
						c-0.132-0.352-0.523-0.53-0.877-0.398C311.188,122.527,311.01,122.92,311.142,123.272z"/>
				</g>
				<g>
					<path style="fill:#DCEDF9;" d="M313.492,130.918c0.312,1.28,0.594,2.597,0.838,3.915c0.065,0.352,0.39,0.59,0.741,0.553
						c0.018-0.002,0.035-0.004,0.053-0.007c0.37-0.069,0.614-0.424,0.546-0.794c-0.249-1.343-0.536-2.686-0.854-3.99
						c-0.089-0.366-0.458-0.589-0.823-0.5C313.627,130.185,313.403,130.553,313.492,130.918z"/>
				</g>
				<g>
					<path style="fill:#DCEDF9;" d="M316.365,151.486c0.338-0.036,0.603-0.319,0.609-0.667c0.021-1.366,0.011-2.738-0.03-4.076
						c-0.011-0.376-0.325-0.671-0.701-0.66c-0.381,0.013-0.671,0.326-0.66,0.701c0.04,1.317,0.049,2.668,0.029,4.014
						c-0.006,0.376,0.294,0.686,0.671,0.691C316.31,151.49,316.338,151.488,316.365,151.486z"/>
				</g>
				<g>
					<path style="fill:#DCEDF9;" d="M315.54,138.027c-0.373,0.049-0.636,0.39-0.587,0.763c0.08,0.616,0.153,1.238,0.217,1.849
						c0.074,0.705,0.141,1.425,0.197,2.139c0.029,0.375,0.357,0.655,0.732,0.626c0.006-0.001,0.012-0.001,0.018-0.002
						c0.366-0.039,0.636-0.362,0.607-0.73c-0.057-0.726-0.124-1.458-0.2-2.175c-0.065-0.622-0.14-1.255-0.221-1.882
						c-0.048-0.367-0.38-0.628-0.746-0.589C315.551,138.026,315.545,138.026,315.54,138.027z"/>
				</g>
				<g>
					<path style="fill:#DCEDF9;" d="M309.622,119.572c0.123,0.276,0.408,0.429,0.693,0.399c0.069-0.007,0.139-0.026,0.207-0.056
						c0.343-0.154,0.497-0.557,0.344-0.9c-0.555-1.24-1.156-2.477-1.786-3.675c-0.175-0.333-0.587-0.461-0.92-0.286
						c-0.333,0.175-0.461,0.587-0.286,0.92C308.491,117.147,309.079,118.357,309.622,119.572z"/>
				</g>
				<g>
					<path style="fill:#DCEDF9;" d="M279.714,88.384c1.169,0.598,2.35,1.248,3.508,1.934c0.131,0.078,0.277,0.106,0.418,0.091
						c0.207-0.022,0.401-0.138,0.515-0.33c0.192-0.324,0.085-0.742-0.239-0.933c-1.182-0.7-2.388-1.365-3.582-1.975
						c-0.335-0.171-0.745-0.038-0.916,0.297C279.247,87.803,279.379,88.213,279.714,88.384z"/>
				</g>
				<g>
					<path style="fill:#DCEDF9;" d="M289.864,94.798c0.144,0.11,0.318,0.154,0.485,0.136c0.18-0.019,0.352-0.109,0.47-0.264
						c0.228-0.299,0.171-0.726-0.128-0.954c-1.079-0.823-2.195-1.625-3.319-2.383c-0.312-0.21-0.735-0.128-0.945,0.184
						c-0.211,0.312-0.128,0.735,0.184,0.945C287.711,93.204,288.806,93.99,289.864,94.798z"/>
				</g>
				<g>
					<path style="fill:#DCEDF9;" d="M295.927,100.026c0.151,0.147,0.353,0.21,0.547,0.189c0.153-0.016,0.301-0.084,0.416-0.202
						c0.262-0.269,0.256-0.701-0.013-0.963c-0.969-0.943-1.983-1.871-3.014-2.76c-0.285-0.246-0.715-0.214-0.96,0.071
						c-0.246,0.285-0.214,0.715,0.071,0.96C293.985,98.193,294.979,99.103,295.927,100.026z"/>
				</g>
				<g>
					<path style="fill:#DCEDF9;" d="M301.308,105.948c0.151,0.188,0.38,0.275,0.604,0.252c0.125-0.013,0.248-0.061,0.353-0.146
						c0.294-0.235,0.341-0.664,0.106-0.957c-0.846-1.057-1.739-2.103-2.653-3.109c-0.253-0.278-0.683-0.299-0.962-0.046
						c-0.278,0.253-0.299,0.684-0.046,0.962C299.605,103.889,300.479,104.913,301.308,105.948z"/>
				</g>
				<g>
					<path style="fill:#DCEDF9;" d="M305.901,112.495c0.142,0.232,0.4,0.349,0.653,0.323c0.097-0.01,0.194-0.042,0.283-0.096
						c0.321-0.196,0.422-0.615,0.226-0.936c-0.707-1.158-1.46-2.308-2.239-3.419c-0.216-0.308-0.64-0.383-0.949-0.166
						c-0.308,0.216-0.383,0.641-0.166,0.949C304.471,110.236,305.209,111.362,305.901,112.495z"/>
				</g>
			</g>
		</g>
		<g>
			<g>
				<polygon style="fill:#FDCC50;" points="276.419,82.082 279.399,71.043 242.879,71.357 				"/>
				<polygon style="fill:#FFAA01;" points="242.879,71.356 274.647,84.747 274.73,84.784 276.097,87.047 276.419,82.082 				"/>
				<polygon style="fill:#F88800;" points="276.097,87.047 273.136,86.58 274.73,84.784 				"/>
				<polygon style="fill:#FDCC50;" points="270.733,83.098 274.731,84.783 266.498,94.059 242.879,71.357 				"/>
			</g>
		</g>
	</g>
	<g>
		<g>
			<g>
				<g>
					<path style="fill:#00A8FF;" d="M456.91,149.906c2.925,0,5.305,2.38,5.305,5.305c0,2.925-2.38,5.305-5.305,5.305
						s-5.305-2.38-5.305-5.305C451.605,152.286,453.985,149.906,456.91,149.906z M456.91,158.851c2.007,0,3.641-1.633,3.641-3.641
						c0-2.007-1.633-3.641-3.641-3.641c-2.007,0-3.641,1.633-3.641,3.641C453.269,157.218,454.903,158.851,456.91,158.851z"/>
				</g>
			</g>
			<g>
				<path style="fill:#FFAA01;" d="M437.813,131.296c2.925,0,5.305,2.38,5.305,5.305s-2.38,5.305-5.305,5.305
					c-2.925,0-5.305-2.38-5.305-5.305S434.889,131.296,437.813,131.296z M437.813,140.241c2.008,0,3.641-1.633,3.641-3.641
					c0-2.007-1.633-3.64-3.641-3.64c-2.007,0-3.64,1.633-3.64,3.64C434.173,138.608,435.806,140.241,437.813,140.241z"/>
			</g>
			<g>
				<g>
					<g>
						<g>
							<path style="fill:#00A8FF;" d="M431.259,114.058c0.46,0,0.832,0.372,0.832,0.832v3.67c0,0.459-0.373,0.832-0.832,0.832
								c-0.459,0-0.832-0.373-0.832-0.832v-3.67C430.427,114.43,430.8,114.058,431.259,114.058z"/>
						</g>
					</g>
					<g>
						<g>
							<path style="fill:#00A8FF;" d="M431.259,107.636c0.46,0,0.832,0.373,0.832,0.832v3.67c0,0.459-0.373,0.832-0.832,0.832
								c-0.459,0-0.832-0.372-0.832-0.832v-3.67C430.427,108.008,430.8,107.636,431.259,107.636z"/>
						</g>
					</g>
				</g>
				<g>
					<g>
						<g>
							<path style="fill:#00A8FF;" d="M426.109,112.682h3.296c0.459,0,0.832,0.372,0.832,0.832c0,0.46-0.373,0.832-0.832,0.832
								h-3.296c-0.46,0-0.832-0.373-0.832-0.832C425.276,113.054,425.649,112.682,426.109,112.682z"/>
						</g>
					</g>
					<g>
						<g>
							<path style="fill:#00A8FF;" d="M433.114,112.682h3.296c0.46,0,0.832,0.372,0.832,0.832c0,0.46-0.373,0.832-0.832,0.832
								h-3.296c-0.46,0-0.832-0.373-0.832-0.832C432.282,113.054,432.654,112.682,433.114,112.682z"/>
						</g>
					</g>
				</g>
			</g>
			<g>
				<g>
					<g>
						<g>
							<g>
								<path style="fill:#FFAA01;" d="M460.551,134.62c0.459,0,0.832,0.372,0.832,0.832v3.67c0,0.46-0.373,0.832-0.832,0.832
									c-0.46,0-0.832-0.372-0.832-0.832v-3.67C459.718,134.992,460.091,134.62,460.551,134.62z"/>
							</g>
						</g>
						<g>
							<g>
								<path style="fill:#FFAA01;" d="M460.551,128.198c0.459,0,0.832,0.372,0.832,0.832v3.669c0,0.46-0.373,0.832-0.832,0.832
									c-0.46,0-0.832-0.372-0.832-0.832v-3.669C459.718,128.57,460.091,128.198,460.551,128.198z"/>
							</g>
						</g>
					</g>
					<g>
						<g>
							<g>
								<path style="fill:#FFAA01;" d="M455.4,133.243h3.297c0.459,0,0.832,0.372,0.832,0.832c0,0.459-0.373,0.832-0.832,0.832
									H455.4c-0.459,0-0.832-0.372-0.832-0.832C454.568,133.616,454.94,133.243,455.4,133.243z"/>
							</g>
						</g>
						<g>
							<g>
								<path style="fill:#FFAA01;" d="M462.405,133.243h3.296c0.46,0,0.832,0.372,0.832,0.832c0,0.459-0.373,0.832-0.832,0.832
									h-3.296c-0.46,0-0.832-0.372-0.832-0.832C461.573,133.616,461.945,133.243,462.405,133.243z"/>
							</g>
						</g>
					</g>
				</g>
			</g>
		</g>
		<g>
			<g>
				<g>
					<g>
						<path style="fill:#00A8FF;" d="M99.861,122.981c2.925,0,5.305,2.38,5.305,5.305c0,2.925-2.38,5.305-5.305,5.305
							c-2.925,0-5.305-2.38-5.305-5.305C94.556,125.36,96.936,122.981,99.861,122.981z M99.861,124.645
							c-2.007,0-3.64,1.633-3.64,3.641c0,2.007,1.633,3.64,3.64,3.64c2.007,0,3.641-1.633,3.641-3.64
							C103.502,126.278,101.869,124.645,99.861,124.645z"/>
					</g>
				</g>
			</g>
			<g>
				<g>
					<g>
						<g>
							<path style="fill:#FFAA01;" d="M80.541,105.458c2.925,0,5.305,2.38,5.305,5.305c0,2.925-2.38,5.305-5.305,5.305
								c-2.925,0-5.305-2.38-5.305-5.305C75.237,107.838,77.616,105.458,80.541,105.458z M80.541,107.122
								c-2.007,0-3.641,1.633-3.641,3.64c0,2.007,1.633,3.641,3.641,3.641s3.64-1.633,3.64-3.641
								C84.182,108.756,82.549,107.122,80.541,107.122z"/>
						</g>
					</g>
				</g>
			</g>
			<g>
				<g>
					<g>
						<g>
							<path style="fill:#00A8FF;" d="M73.543,135.781c0,0.459,0.372,0.832,0.832,0.832h3.67c0.46,0,0.832-0.373,0.832-0.832
								c0-0.46-0.373-0.832-0.832-0.832h-3.67C73.916,134.948,73.543,135.321,73.543,135.781z"/>
						</g>
					</g>
					<g>
						<g>
							<path style="fill:#00A8FF;" d="M67.122,135.781c0,0.459,0.372,0.832,0.832,0.832h3.669c0.46,0,0.832-0.373,0.832-0.832
								c0-0.46-0.372-0.832-0.832-0.832h-3.669C67.494,134.948,67.122,135.321,67.122,135.781z"/>
						</g>
					</g>
				</g>
				<g>
					<g>
						<g>
							<path style="fill:#00A8FF;" d="M72.167,130.63v3.296c0,0.46,0.372,0.832,0.832,0.832c0.46,0,0.832-0.373,0.832-0.832v-3.296
								c0-0.46-0.373-0.832-0.832-0.832C72.54,129.798,72.167,130.17,72.167,130.63z"/>
						</g>
					</g>
					<g>
						<g>
							<path style="fill:#00A8FF;" d="M72.167,137.635v3.296c0,0.46,0.372,0.832,0.832,0.832c0.46,0,0.832-0.373,0.832-0.832v-3.296
								c0-0.46-0.373-0.832-0.832-0.832C72.54,136.803,72.167,137.175,72.167,137.635z"/>
						</g>
					</g>
				</g>
			</g>
			<g>
				<g>
					<g>
						<g>
							<g>
								<path style="fill:#FFAA01;" d="M112.402,107.122c0,0.46,0.372,0.832,0.832,0.832h3.67c0.46,0,0.832-0.373,0.832-0.832
									c0-0.46-0.372-0.832-0.832-0.832h-3.67C112.774,106.29,112.402,106.663,112.402,107.122z"/>
							</g>
						</g>
						<g>
							<g>
								<g>
									<path style="fill:#FFAA01;" d="M105.98,107.122c0,0.46,0.372,0.832,0.832,0.832h3.669c0.46,0,0.832-0.373,0.832-0.832
										c0-0.46-0.372-0.832-0.832-0.832h-3.669C106.352,106.29,105.98,106.663,105.98,107.122z"/>
								</g>
							</g>
						</g>
					</g>
					<g>
						<g>
							<g>
								<path style="fill:#FFAA01;" d="M111.025,101.972v3.296c0,0.459,0.373,0.832,0.832,0.832c0.46,0,0.832-0.373,0.832-0.832
									v-3.296c0-0.459-0.373-0.832-0.832-0.832C111.398,101.14,111.025,101.512,111.025,101.972z"/>
							</g>
						</g>
						<g>
							<g>
								<path style="fill:#FFAA01;" d="M111.025,108.977v3.297c0,0.459,0.373,0.832,0.832,0.832c0.46,0,0.832-0.373,0.832-0.832
									v-3.297c0-0.459-0.373-0.832-0.832-0.832C111.398,108.145,111.025,108.517,111.025,108.977z"/>
							</g>
						</g>
					</g>
				</g>
			</g>
		</g>
		<g>
			<g>
				<g>
					<g>
						<path style="fill:#FFAA01;" d="M75.131,194.557H60.249c-2.355,0-4.264-1.909-4.264-4.264v-14.882
							c0-2.355,1.909-4.264,4.264-4.264h14.882c2.355,0,4.264,1.909,4.264,4.264v14.882
							C79.394,192.648,77.485,194.557,75.131,194.557z"/>
					</g>
				</g>
			</g>
			<g>
				<path style="fill:#FFFFFF;" d="M74.312,178.033c-0.039-0.161-0.076-0.323-0.117-0.484c-0.142-0.569-0.411-1.07-0.795-1.513
					c-0.275-0.317-0.592-0.587-0.951-0.794c-0.495-0.285-1.056-0.163-1.421,0.277c-0.653,0.787-1.302,1.577-1.946,2.372
					c-0.396,0.488-0.331,1.155,0.159,1.59c0.351,0.311,0.721,0.6,1.084,0.898c0.047,0.038,0.101,0.067,0.142,0.093
					c-0.865,2.328-2.333,4.125-4.44,5.42c-0.255-0.212-0.522-0.436-0.791-0.657c-0.137-0.114-0.273-0.229-0.415-0.337
					c-0.424-0.324-0.914-0.357-1.354-0.069c-0.139,0.091-0.254,0.226-0.361,0.356c-0.59,0.712-1.171,1.431-1.762,2.142
					c-0.187,0.225-0.306,0.474-0.347,0.763c0.011,0.106,0.021,0.211,0.031,0.317c0.103,0.178,0.173,0.389,0.314,0.529
					c0.346,0.344,0.725,0.651,1.178,0.855c0.53,0.239,1.084,0.385,1.664,0.334c0.382-0.034,0.766-0.114,1.136-0.218
					c0.953-0.266,1.822-0.721,2.639-1.272c0.809-0.546,1.547-1.181,2.224-1.883c0.914-0.948,1.725-1.981,2.46-3.073
					c0.58-0.861,1.08-1.762,1.406-2.753c0.163-0.499,0.273-1.008,0.308-1.533c0.014-0.211,0.019-0.423,0.028-0.634
					C74.36,178.517,74.336,178.275,74.312,178.033z"/>
			</g>
		</g>
		<g>
			<g>
				<g>
					<path style="fill:#FFAA01;" d="M436.016,330.384h-16.964c-1.878,0-3.4-1.522-3.4-3.4V310.02c0-1.878,1.522-3.4,3.4-3.4h16.964
						c1.878,0,3.4,1.522,3.4,3.4v16.964C439.416,328.862,437.894,330.384,436.016,330.384z"/>
				</g>
			</g>
			<g>
				<path style="fill:#FFFFFF;" d="M435.127,318.052c0,2.963-1.66,4.499-3.645,4.499c-1.163,0-2.016-0.451-2.451-1.35
					c-0.435,0.854-1.178,1.35-2.358,1.35c-1.675,0-3.288-1.474-3.288-3.863c0-2.39,1.566-3.847,3.288-3.847
					c0.822,0,1.459,0.264,1.909,0.76v-0.622h2.978v4.437c0,0.652,0.264,0.853,0.605,0.853c0.435,0,0.791-0.435,0.791-2.171
					c0-2.808-2.094-4.794-5.29-4.794c-3.179,0-5.32,2.233-5.32,5.181c0,3.04,2.094,5.212,5.258,5.212
					c1.024,0,2.079-0.201,3.134-0.682l0.652,1.909c-0.931,0.45-2.405,0.744-3.786,0.744c-4.67,0-7.663-3.117-7.663-7.182
					c0-4.003,2.994-7.152,7.725-7.152C432.133,311.335,435.127,314.328,435.127,318.052z M428.643,318.689
					c0-0.931-0.481-1.412-1.117-1.412c-0.637,0-1.101,0.481-1.101,1.412c0,0.946,0.465,1.426,1.101,1.426
					C428.162,320.115,428.643,319.635,428.643,318.689z"/>
			</g>
		</g>
	</g>
	<g>
		<g>
			<g>
				<path style="fill:#00A8FF;" d="M431.103,177.858v75.812c0,7.081-5.74,12.823-12.823,12.823H236.653V136.871h153.463
					c11.32,0,21.566,4.587,28.984,12.006C426.516,156.292,431.103,166.541,431.103,177.858z"/>
			</g>
			<g>
				<path style="fill:#28BAFF;" d="M431.103,237.617v16.054c0,7.081-5.74,12.823-12.823,12.823H266.452v-28.877H431.103z"/>
			</g>
			<g>
				<path style="fill:#007FE9;" d="M279.475,173.39v93.103h-82.12V173.39c0-20.225,16.395-36.617,36.617-36.617h9.112
					C263.206,136.896,279.475,153.241,279.475,173.39z"/>
			</g>
			<g>
				<path style="fill:#0050DB;" d="M279.475,173.39v93.103h-73.009V173.39c0-20.15,16.272-36.494,36.391-36.617h0.226
					C263.206,136.896,279.475,153.241,279.475,173.39z"/>
			</g>
			<g>
				<g>
					<path style="fill:#007FE9;" d="M197.353,266.492l-31.272,55.06c-11.487,20.225-4.402,36.617,15.82,36.617h9.112
						c20.192-0.123,45.744-16.468,57.188-36.617l31.272-55.06H197.353z"/>
				</g>
				<rect x="197.355" y="261.173" style="fill:#007FE9;" width="82.12" height="5.32"/>
			</g>
		</g>
		<g>
			<g>
				<g>
					<circle style="fill:#007FE9;" cx="365.284" cy="169.881" r="13.167"/>
				</g>
				<circle style="fill:#2E3052;" cx="365.284" cy="167.373" r="13.167"/>
				<path style="fill:#524E84;" d="M365.284,175.022c-4.218,0-7.649-3.431-7.649-7.649c0-4.217,3.431-7.649,7.649-7.649
					s7.649,3.431,7.649,7.649C372.933,171.591,369.501,175.022,365.284,175.022z"/>
			</g>
			<g>
				<path style="fill:#FFAA01;" d="M367.487,79.289V167.1c0,1.216-0.988,2.202-2.204,2.202s-2.202-0.986-2.202-2.202V79.289H367.487
					z"/>
				<polygon style="fill:#2E3052;" points="398.75,95.655 363.081,95.655 363.081,75.793 398.75,75.793 390.64,85.724 				"/>
				<polygon style="fill:#F88800;" points="367.487,95.654 367.487,96.85 363.081,98.39 363.081,95.654 				"/>
			</g>
		</g>
		<g>
			<rect x="316.176" y="266.516" style="fill:#007FE9;" width="17.556" height="168.063"/>
			<g>
				<path style="fill:#00A8FF;" d="M363.872,438.061h-77.837v-3.807c0-5.912,4.792-10.704,10.704-10.704h56.428
					c5.912,0,10.704,4.792,10.704,10.704V438.061z"/>
			</g>
			<g>
				<polygon style="fill:#0050DB;" points="333.732,266.516 333.732,271.048 316.176,277.193 316.176,266.516 				"/>
			</g>
		</g>
	</g>
	<g>
		<g>
			<g>
				<path style="fill:#007FE9;" d="M173.185,205.281c6.514,23.693,27.973,30.308,27.973,30.308c8.508-1.805,13.9-4.361,19.253-7.309
					c-1.586-3.798-2.273-7.656-3.154-12.668c-7.903,2.199-14.728,3.374-14.728,3.374c-16.682-7.732-26.801-44.744-26.801-44.744
					C165.812,183.654,173.185,205.281,173.185,205.281z"/>
			</g>
			<g>
				<path style="fill:#FBA691;" d="M117.069,395.663l-7.058,9.441c0,0,1.289,4.22,6.516,7.473l8.442-10.863L117.069,395.663z"/>
				<g>
					<g>
						<path style="fill:#FFAA01;" d="M115.355,409.653c0,0,3.302-0.711,4.432,0.43c1.13,1.141,3.965,16.673,6.618,20.071
							c2.653,3.398-0.018,5.204-1.651,5.892c-1.633,0.689-25.03-22.686-25.03-22.686s5.784-7.991,8.573-9.542
							C111.087,402.267,112.395,408.009,115.355,409.653z"/>
					</g>
					<g>
						<g>
							<path style="fill:#FFFFFF;" d="M115.791,418.718c-0.147-0.056-0.273-0.172-0.339-0.332c-0.128-0.312,0.016-0.673,0.32-0.808
								c0.102-0.045,2.519-1.101,4.451-0.744c2.571,0.472,3.21,2.681,3.236,2.775c0.09,0.325-0.095,0.667-0.413,0.763
								c-0.318,0.097-0.649-0.089-0.739-0.415c-0.018-0.06-0.479-1.574-2.309-1.913c-1.574-0.29-3.741,0.653-3.763,0.663
								C116.088,418.771,115.929,418.77,115.791,418.718z"/>
						</g>
						<g>
							<path style="fill:#FFFFFF;" d="M115.405,416.233c-0.147-0.056-0.272-0.172-0.338-0.332c-0.128-0.312,0.016-0.673,0.321-0.809
								c0.102-0.045,2.519-1.101,4.451-0.745c2.574,0.473,3.21,2.681,3.236,2.775c0.09,0.325-0.095,0.667-0.413,0.764
								c-0.318,0.096-0.649-0.089-0.739-0.415c-0.018-0.06-0.48-1.575-2.309-1.913c-1.581-0.292-3.741,0.653-3.763,0.663
								C115.702,416.286,115.544,416.286,115.405,416.233z"/>
						</g>
						<g>
							<path style="fill:#FFFFFF;" d="M116.872,421.333c-0.147-0.056-0.272-0.172-0.338-0.332c-0.127-0.312,0.016-0.674,0.321-0.809
								c0.102-0.045,2.519-1.101,4.451-0.744c2.574,0.473,3.21,2.681,3.236,2.775c0.09,0.325-0.095,0.667-0.413,0.764
								c-0.318,0.096-0.649-0.089-0.739-0.415c-0.018-0.06-0.48-1.575-2.309-1.913c-1.581-0.292-3.741,0.653-3.762,0.663
								C117.17,421.385,117.011,421.386,116.872,421.333z"/>
						</g>
					</g>
				</g>
			</g>
			<g>
				<path style="fill:#FBA691;" d="M160.364,411.875l1.07,11.739c0,0,3.782,2.275,9.842,1.195l-0.993-13.722L160.364,411.875z"/>
				<g>
					<g>
						<path style="fill:#FFAA01;" d="M169.138,423.159c0,0,2.065-2.858,3.739-2.761c1.674,0.097,14.72,10.167,19.152,10.95
							c4.431,0.783,3.62,4.049,2.834,5.724c-0.786,1.675-35.091,0.714-35.091,0.714s-1.264-11.074-0.184-14.225
							C160.668,420.409,165.692,423.951,169.138,423.159z"/>
					</g>
					<g>
						<g>
							<path style="fill:#FFFFFF;" d="M177.628,430.637c-0.15,0.051-0.32,0.041-0.473-0.04c-0.297-0.159-0.417-0.529-0.269-0.827
								c0.05-0.1,1.237-2.455,2.952-3.413c2.281-1.277,4.182,0.017,4.262,0.072c0.277,0.193,0.353,0.574,0.169,0.851
								c-0.183,0.277-0.557,0.345-0.834,0.151c-0.052-0.035-1.373-0.906-2.999,0c-1.398,0.781-2.464,2.89-2.475,2.911
								C177.89,430.489,177.768,430.59,177.628,430.637z"/>
						</g>
						<g>
							<path style="fill:#FFFFFF;" d="M175.746,428.97c-0.149,0.051-0.319,0.041-0.473-0.04c-0.297-0.159-0.418-0.529-0.269-0.827
								c0.05-0.1,1.237-2.455,2.952-3.413c2.284-1.278,4.182,0.016,4.262,0.072c0.277,0.193,0.353,0.574,0.169,0.851
								c-0.183,0.277-0.557,0.346-0.834,0.151c-0.052-0.035-1.374-0.906-2.999,0c-1.403,0.784-2.464,2.89-2.474,2.911
								C176.008,428.821,175.886,428.923,175.746,428.97z"/>
						</g>
						<g>
							<path style="fill:#FFFFFF;" d="M180.129,431.961c-0.149,0.051-0.319,0.042-0.473-0.04c-0.297-0.159-0.417-0.529-0.269-0.827
								c0.05-0.1,1.237-2.455,2.952-3.413c2.283-1.278,4.182,0.016,4.262,0.072c0.277,0.193,0.353,0.575,0.169,0.851
								c-0.183,0.277-0.557,0.345-0.834,0.152c-0.052-0.035-1.375-0.906-2.999,0c-1.403,0.784-2.464,2.89-2.474,2.911
								C180.392,431.812,180.27,431.913,180.129,431.961z"/>
						</g>
					</g>
				</g>
			</g>
			<g>
				<path style="fill:#001030;" d="M153.785,284.45l-7.129,59.002c0,0-6.396,8.679-12.493,19.784
					c-5.117,9.32-18.753,33.505-18.753,33.505l8.247,6.287l45.17-46.809l12.025-72.345L153.785,284.45z"/>
				<path style="fill:#2E3052;" d="M125.691,402.878c-0.741,1.861-2.126,3.127-3.743,4.19l-9.577-8.087
					c0.803-1.698,1.902-3.166,3.263-4.43L125.691,402.878z"/>
			</g>
			<g>
				<path style="fill:#2E3052;" d="M117.306,286.889c0,0,12.72,31.274,29.252,55.661c0,0,2.469,23.734,6.691,36.369
					c1.849,5.532,5.429,31.743,5.429,31.743l12.541-0.57l-3.236-72.877l-13.267-52.784L117.306,286.889z"/>
				<path style="fill:#524E84;" d="M172.386,409.662c0.796,2.18,0.577,4.342,0,6.508l-14.514,0.406
					c-0.617-2.087-0.8-4.203-0.6-6.345L172.386,409.662z"/>
			</g>
			<g>
				<g>
					<g>
						<g>
							<g>
								<path style="fill:#00A8FF;" d="M175.728,174.241c1.891,2.359,5.683,26.396,6.278,50.798
									c0.015,0.564,0.027,1.124,0.043,1.685c0.061,2.583,0.116,5.177,0.168,7.772c0.052,2.561,0.098,5.116,0.141,7.653
									c0.067,4.151,0.129,8.238,0.178,12.175c0.006,0.447,0.009,0.891,0.015,1.336c0.046,3.839,0.083,7.518,0.11,10.955
									c0.003,0.45,0.006,0.895,0.009,1.336c0.04,5.159,0.064,9.727,0.067,13.394v0.003c0.003,0.515,0.003,1.002,0.003,1.48
									c0,2.564-0.006,4.598-0.025,5.971c-6.075,1.636-12.147,2.822-18.219,3.548c-0.16,0.018-0.322,0.04-0.484,0.058
									c-0.273,0.034-0.539,0.064-0.809,0.095c-0.067,0.006-0.132,0.012-0.202,0.018c-1.054,0.116-2.102,0.218-3.159,0.303
									c-5.22,0.429-10.441,0.524-15.661,0.282c-0.46-0.021-0.913-0.046-1.372-0.074c-0.408-0.021-0.821-0.046-1.235-0.077
									c-0.184-0.009-0.371-0.021-0.557-0.037c-0.349-0.025-0.693-0.052-1.042-0.077c-7.671-0.622-15.343-1.964-23.011-4.041
									c-0.04-3.021-0.077-9.176-0.089-17.113c0-0.435-0.003-0.876,0-1.324c-0.009-8.756,0.025-19.503,0.129-30.569
									c0.009-0.876,0.018-1.749,0.031-2.629c0.009-1.014,0.019-2.034,0.031-3.057c0.003-0.172,0.003-0.346,0.006-0.518
									c0.006-0.239,0.009-0.478,0.012-0.72c0.003-0.481,0.009-0.965,0.018-1.443c0.009-0.702,0.018-1.4,0.031-2.096
									c0.006-0.53,0.015-1.06,0.021-1.59c0.015-1.054,0.034-2.108,0.049-3.156c0.37-21.969,1.112-42.158,2.524-47.296
									c0.132-0.475,0.27-0.821,0.408-1.026c0.15-0.23,0.337-0.46,0.545-0.699c0.263-0.3,0.57-0.61,0.913-0.922
									c2.353-2.166,6.433-4.681,10.572-7.068c0.481-0.279,0.968-0.554,1.446-0.83c0.073-0.04,11.246-3.808,11.317-3.851
									l11.688,0.818C156.617,163.712,172.949,170.775,175.728,174.241z"/>
							</g>
						</g>
					</g>
				</g>
				<g>
					<g>
						<path style="fill:#007FE9;" d="M128.573,205.893c0-0.581-0.74-0.835-1.091-0.372c-4.697,6.187-7.531,12.932-9.206,18.263
							c-0.429,1.369-0.8,2.696-1.121,3.958c-0.006,0.53-0.015,1.06-0.021,1.59c-0.012,0.696-0.021,1.394-0.031,2.096
							c-0.009,0.478-0.015,0.962-0.018,1.443c-0.003,0.242-0.006,0.481-0.012,0.72c-0.003,0.172-0.003,0.346-0.006,0.518
							c0.441-2.672,1.173-6.158,2.377-9.994c1.642-5.217,4.419-11.814,9.006-17.857
							C128.529,206.152,128.573,206.024,128.573,205.893L128.573,205.893z"/>
					</g>
				</g>
				<g>
					<g>
						<path style="fill:#007FE9;" d="M130.951,269.656c0.001,0,0.002,0,0.003,0c12.62-0.056,23.393-5.799,30.208-10.607
							c7.37-5.2,11.836-10.469,11.88-10.521c0.216-0.257,0.183-0.64-0.074-0.856c-0.257-0.216-0.64-0.183-0.856,0.074
							c-0.043,0.052-4.429,5.22-11.679,10.33c-6.666,4.699-17.193,10.311-29.485,10.365c-0.335,0.001-0.606,0.275-0.604,0.61
							C130.345,269.386,130.617,269.656,130.951,269.656z"/>
					</g>
				</g>
				<g>
					<g>
						<path style="fill:#007FE9;" d="M144.104,273.944c10.952,0,21.873-6.241,22.369-6.528c0.29-0.168,0.389-0.54,0.221-0.83
							c-0.168-0.29-0.539-0.389-0.83-0.222c-0.129,0.074-12.979,7.413-24.373,6.234c-0.338-0.038-0.632,0.208-0.666,0.542
							c-0.035,0.334,0.208,0.632,0.541,0.666C142.276,273.901,143.19,273.944,144.104,273.944z"/>
					</g>
				</g>
				<g>
					<g>
						<path style="fill:#007FE9;" d="M140.967,182.912c10.554-2.926,19.411-11.857,19.812-12.266
							c0.235-0.24,0.231-0.624-0.008-0.859c-0.239-0.235-0.624-0.23-0.859,0.008c-0.104,0.106-10.527,10.61-21.822,12.518
							c-0.336,0.054-0.553,0.37-0.498,0.7c0.056,0.331,0.369,0.554,0.7,0.498C139.193,183.358,140.086,183.156,140.967,182.912z"/>
					</g>
				</g>
			</g>
			<g>
				<g>
					<path style="fill:#2E3052;" d="M132.134,133.649c0,10.671,6.569,18.024,17.24,18.024c10.671,0,18.107-7.907,18.107-18.577
						s-6.319-18.755-16.989-18.755C137.695,114.342,132.134,122.979,132.134,133.649z"/>
					<path style="fill:#2E3052;" d="M132.377,136.479c0,0-3.73-5.639-1.757-9.986c2.042-4.499,1.006-3.514,1.514-6.893
						c0.508-3.379,2.97-4.771,5.917-5.258c2.947-0.487,0.928-3.88,5.014-5.098c4.085-1.218,7.359,3.047,9.986,1.136
						c2.627-1.911,9.08-2.851,10.893,0c1.813,2.851,3.425,2.832,5.357,2.741c2.326-0.111,5.444,3.557,3.339,6.934
						c-2.104,3.377-5.648,2.036-5.158,4.362c0.49,2.326,3.486,6.424-0.531,11.63C165.734,137.623,132.377,136.479,132.377,136.479z"
						/>
					<g>
						<path style="fill:#FB876B;" d="M134.532,138.244c0,0-2.965-3.953-5.169-0.684c-2.204,3.269,0.912,12.923,6.309,10.566
							L134.532,138.244z"/>
						<g>
							<path style="fill:#D45C48;" d="M134.493,145.143c-0.199,0-0.382-0.132-0.439-0.333c-0.836-2.98-3.924-4.189-3.955-4.201
								c-0.235-0.09-0.354-0.353-0.264-0.588c0.089-0.235,0.352-0.354,0.587-0.265c0.145,0.055,3.547,1.375,4.511,4.807
								c0.068,0.243-0.074,0.494-0.316,0.563C134.575,145.137,134.534,145.143,134.493,145.143z"/>
						</g>
						<g>
							<path style="fill:#D45C48;" d="M131.376,143.641c-0.084,0-0.17-0.024-0.246-0.073c-0.212-0.137-0.273-0.419-0.137-0.63
								c0.023-0.035,0.569-0.869,1.712-1.38c0.229-0.103,0.499,0,0.603,0.23c0.103,0.23,0,0.5-0.23,0.602
								c-0.884,0.396-1.313,1.035-1.317,1.041C131.673,143.567,131.526,143.641,131.376,143.641z"/>
						</g>
					</g>
					<g>
						<path style="fill:#FB876B;" d="M165.084,138.244c0,0,2.965-3.953,5.169-0.684c2.204,3.269-0.912,12.923-6.309,10.566
							L165.084,138.244z"/>
						<g>
							<g>
								<g>
									<path style="fill:#D45C48;" d="M165.122,145.143c0.199,0,0.382-0.132,0.439-0.333c0.836-2.98,3.924-4.189,3.955-4.201
										c0.235-0.09,0.353-0.353,0.264-0.588c-0.089-0.235-0.352-0.354-0.587-0.265c-0.144,0.055-3.547,1.375-4.511,4.807
										c-0.068,0.243,0.073,0.494,0.316,0.563C165.04,145.137,165.081,145.143,165.122,145.143z"/>
								</g>
							</g>
						</g>
						<g>
							<g>
								<path style="fill:#D45C48;" d="M168.239,143.641c0.084,0,0.17-0.024,0.247-0.073c0.212-0.137,0.273-0.419,0.136-0.63
									c-0.023-0.035-0.569-0.869-1.712-1.38c-0.229-0.103-0.499,0-0.602,0.23c-0.103,0.23,0,0.5,0.23,0.602
									c0.884,0.396,1.313,1.035,1.317,1.041C167.942,143.567,168.089,143.641,168.239,143.641z"/>
							</g>
						</g>
					</g>
					<path style="fill:#FBA691;" d="M157.106,156.314v10.157c0,0-1.585,2.367-4.767,2.744c-4.451,0.527-9.274-4.177-9.274-4.177
						v-8.049L157.106,156.314z"/>
					<path style="fill:#FB876B;" d="M157.106,156.314v4.26c-2.598,2.883-7.212,3.603-14.041,2.595v-6.18L157.106,156.314z"/>
					<path style="fill:#FBA691;" d="M132.958,138.063c0.039,0.556,0.085,1.119,0.141,1.688c0.144,1.43,0.337,2.899,0.599,4.361
						c0.01,0.052,0.017,0.101,0.026,0.147c1.289,7.08,4.188,14.039,10.434,16.27c14.15,5.052,19.202-7.08,21.224-14.154
						c0.223-0.785,0.425-1.659,0.602-2.591c0.007-0.036,0.013-0.075,0.023-0.118c0.196-1.047,0.367-2.163,0.51-3.311
						c0.108-0.851,0.2-1.714,0.281-2.585c0.206-2.114,0.34-4.234,0.429-6.115c0.206-4.299-2.369-8.255-6.396-9.799
						c-5.804-2.231-14.615-3.998-22.965,0.736c-3.085,1.747-5.019,4.986-5.088,8.53C132.742,133.08,132.771,135.481,132.958,138.063
						z"/>
					<path style="fill:#2E3052;" d="M132.958,138.063c0.039,0.556,0.085,1.119,0.141,1.688c0.144,1.43,0.337,2.899,0.599,4.361
						c0.01,0.052,0.017,0.101,0.026,0.147c1.289,7.08,4.188,14.039,10.434,16.27c14.15,5.052,19.202-7.08,21.224-14.154
						c0.223-0.785,0.425-1.659,0.602-2.591c0.007-0.036,0.013-0.075,0.023-0.118c0.196-1.047,0.367-2.163,0.51-3.311
						c0.108-0.851,0.2-1.714,0.281-2.585l-2.12,0.553c-0.605,3.203-1.515,7.868-2.699,10.044
						c-1.855-4.528-12.171-0.788-12.171-0.788s-9.197-3.268-12.312-0.02c-1.482-3.766-2.797-9.236-2.797-9.236L132.958,138.063z
						 M149.513,149.255c7.424-1.018,9.269,0.88,9.615,3.079c-2.012,2.117-4.26,3.337-6.324,3.802
						c-2.549,0.579-7.708,0.527-11.474-2.441C140.951,151.984,140.522,146.991,149.513,149.255z"/>
					<path style="fill:#2E3052;" d="M144.998,138.808c0,1.025-0.528,1.855-1.18,1.855c-0.652,0-1.18-0.831-1.18-1.855
						c0-1.025,0.528-1.856,1.18-1.856C144.47,136.952,144.998,137.783,144.998,138.808z"/>
					<path style="fill:#2E3052;" d="M158.685,138.808c0,1.025-0.528,1.855-1.18,1.855c-0.652,0-1.18-0.831-1.18-1.855
						c0-1.025,0.528-1.856,1.18-1.856C158.157,136.952,158.685,137.783,158.685,138.808z"/>
					<path style="fill:#2E3052;" d="M160.845,132.44c0,0-3.722-1.471-6.589-0.233l0.287,1.594c0,0,4.206-0.356,6.326,0.503
						C161.059,133.691,161.087,133.071,160.845,132.44z"/>
					<path style="fill:#2E3052;" d="M139.157,132.44c0,0,3.722-1.471,6.589-0.233l-0.287,1.594c0,0-4.206-0.356-6.326,0.503
						C138.943,133.691,138.915,133.071,139.157,132.44z"/>
					<g>
						<path style="fill:#FB876B;" d="M150.271,146.853c-0.764,0.093-1.558-0.111-1.681-0.145c-0.243-0.066-0.386-0.317-0.32-0.56
							c0.066-0.243,0.317-0.387,0.56-0.32c0.429,0.116,1.443,0.256,1.837-0.05c0.076-0.059,0.176-0.17,0.171-0.449
							c-0.03-1.601-1.11-6.847-1.121-6.9c-0.051-0.247,0.108-0.488,0.354-0.539c0.248-0.052,0.488,0.107,0.539,0.354
							c0.045,0.219,1.109,5.383,1.14,7.068c0.012,0.634-0.278,0.995-0.523,1.186C150.958,146.707,150.617,146.811,150.271,146.853z"
							/>
					</g>
					<path style="fill:#FFFFFF;" d="M144.035,149.589c0.372,1.876,1.611,5.326,5.785,5.326c4.184,0,5.357-3.153,5.76-5.326H144.035z
						"/>
					<path style="fill:#2E3052;" d="M166.745,138.325h-2.067c0.228-2.075-0.526-4.583-1.148-6.254
						c-1.412-3.789,1.594-5.46-0.837-7.358c-2.431-1.902-8.482-1.087-12.69-1.223c-4.234-0.137-11.039-0.077-12.69,0.306
						c-1.656,0.378-0.748,3.127-0.141,5.257c0.611,2.125-2.03,4.479-2.472,6.682c-0.127,0.632-0.101,1.572,0.001,2.589h-1.723
						c-0.204-2.681-0.235-5.177-0.198-7.201c0.069-3.544,2.003-6.782,5.086-8.529c8.351-4.734,17.163-2.969,22.964-0.739
						c4.027,1.546,6.604,5.501,6.399,9.802C167.13,133.702,166.979,136.027,166.745,138.325z"/>
				</g>
			</g>
			<g>
				
					<rect x="124.764" y="177.267" transform="matrix(0.6369 -0.771 0.771 0.6369 -101.1855 219.8009)" style="fill:#FFAA01;" width="115.956" height="80.099"/>
				<polygon style="fill:#F88800;" points="188.79,147.115 192.749,150.386 195.443,227.808 118.902,239.781 114.943,236.511 
					191.617,224.652 				"/>
				<g>
					<polygon style="fill:#F88800;" points="176.709,226.822 178.833,284.933 176.694,287.522 175.12,286.221 172.955,226.961 					
						"/>
				</g>
				<g>
					<g>
						<polygon style="fill:#F88800;" points="249.178,196.996 250.544,198.124 248.211,200.947 190.745,209.832 190.172,206.119 
													"/>
					</g>
				</g>
				<polygon style="fill:#FDCC50;" points="114.938,236.511 191.617,224.652 188.788,147.113 				"/>
			</g>
			<g>
				<path style="fill:#FBA691;" d="M175.639,259.051h2.131c1.904,0,3.351-1.121,4.205-2.823c0.378-0.752,0.891-2.128,1.246-2.601
					c0.996-1.328,3.713-3.557,4.732-3.625c1.018-0.068,0.83,1.826,0.111,2.657c-0.72,0.83-1.854,1.887-2.463,3.06
					c-0.609,1.173,4.981,3.553,7.25,4.107c2.269,0.553,6.254-0.664,6.641,1.217c0.387,1.882-2.601,2.158-2.601,2.158
					s0.876,1.695-1.605,3.099c0,0,0.443,1.66-1.162,2.546c0,0,0.182,2.103-1.68,2.656c-1.862,0.553-7.673,2.239-19.074-4.679
					L175.639,259.051z"/>
				<g>
					<g>
						<g>
							<g>
								<g>
									<path style="fill:#007FE9;" d="M136.519,210.651c4.304,16.267,8.526,23.457,8.526,23.457s4.829,7.379,14.754,14.361
										c6.893,4.85,17.971,10.582,17.971,10.582c-1.911,2.484-3.261,7.395-2.522,8.864c-23.029,0-43.169-21.818-43.169-21.818
										c-16.113-28.041-17.164-50.878-16.9-59.197c0.093-2.929,0.946-5.799,2.559-8.245c0.834-1.264,1.875-2.432,3.098-3.007
										c0,0,6.908,2.574,9.308,10.678C132.544,194.431,136.519,210.651,136.519,210.651z"/>
								</g>
							</g>
						</g>
					</g>
				</g>
			</g>
			<path style="fill:#FBA691;" d="M239.072,212.088c0,0-5.122-1.811-7.476-0.831c-2.354,0.98,4.17,4.513,4.17,4.513
				s-7.909-4.209-9.275-2.513c-1.366,1.697,6.2,6.005,6.2,6.005s-5.792-2.036-6.969-0.84c-1.177,1.196,4.224,4.572,4.224,4.572
				s-4.754-1.148-5.746-0.34c-0.992,0.808,3.222,4.193,5.897,5.09c2.675,0.896,3.106-2.87,3.106-2.87s2.516-2.216,2.181-3.754
				c0,0,2.611-1.76,2.795-3.56C238.179,217.559,241.863,214.315,239.072,212.088z"/>
		</g>
	</g>
</g>
<g id="DESIGNED_BY_FREEPIK">
	<g>
		<g id="XMLID_1_">
			<g id="XMLID_20_">
				<path id="XMLID_28_" style="fill:#112129;" d="M260.104,465.465c-0.432,0.443-0.803,0.931-1.108,1.453l-0.465-0.241
					c-0.067-0.298-0.349-0.503-0.659-0.466c-0.331,0.039-0.568,0.339-0.529,0.67c0.039,0.331,0.339,0.568,0.67,0.529
					c0.065-0.008,0.127-0.026,0.183-0.052l0.452,0.234c-0.251,0.554-0.433,1.139-0.539,1.744l0.747,0.132
					c0.23-1.306,0.85-2.507,1.792-3.473L260.104,465.465z"/>
				<path id="XMLID_27_" style="fill:#112129;" d="M265.592,463.163c-0.171,0-0.341,0.006-0.51,0.017l-0.074-0.626
					c0.188-0.149,0.296-0.389,0.266-0.645c-0.046-0.393-0.402-0.674-0.795-0.628c-0.393,0.046-0.674,0.402-0.628,0.795
					c0.03,0.254,0.189,0.461,0.405,0.564l0.073,0.624c-0.714,0.116-1.403,0.332-2.06,0.646l0.327,0.684
					c0.934-0.447,1.942-0.673,2.995-0.673c0.496,0,0.993,0.053,1.475,0.158l0.161-0.741
					C266.692,463.222,266.142,463.163,265.592,463.163z"/>
				<path id="XMLID_26_" style="fill:#112129;" d="M272.194,465.711c0.331-0.04,0.566-0.341,0.526-0.672
					c-0.04-0.331-0.341-0.566-0.672-0.526c-0.309,0.038-0.535,0.304-0.53,0.609l-0.416,0.363c-0.418-0.43-0.89-0.813-1.408-1.139
					l-0.404,0.641c1.134,0.715,2.021,1.726,2.563,2.925l0.691-0.313c-0.251-0.554-0.568-1.072-0.942-1.545l0.402-0.351
					C272.065,465.716,272.129,465.719,272.194,465.711z"/>
				<path id="XMLID_25_" style="fill:#112129;" d="M265.044,473.372c-0.386,0.023-0.775,0.035-1.157,0.035
					c-0.88,0-1.733-0.061-2.478-0.179c-0.39-0.062-0.846-0.155-1.27-0.292c1.046,1.861,3.069,3.125,5.388,3.125
					c2.855,0,5.262-1.916,5.95-4.504c-0.682,0.449-1.505,0.825-2.459,1.123C267.839,473.047,266.464,473.286,265.044,473.372z"/>
				<path id="XMLID_21_" style="fill:#112129;" d="M265.592,464.68c-3.352,0-6.08,2.666-6.08,5.943c0,0.426,0.046,0.849,0.137,1.261
					c0.673,0.483,2.706,0.89,5.348,0.731c2.879-0.173,5.297-0.957,6.672-2.159c-0.005-0.195-0.021-0.39-0.045-0.582
					C271.244,466.913,268.65,464.68,265.592,464.68z M263.432,471.194c-1.02,0-1.85-0.83-1.85-1.85c0-1.02,0.83-1.85,1.85-1.85
					c1.02,0,1.85,0.83,1.85,1.85C265.282,470.365,264.452,471.194,263.432,471.194z M268.17,470.286c-0.75,0-1.36-0.61-1.36-1.36
					s0.61-1.361,1.36-1.361c0.75,0,1.361,0.61,1.361,1.361S268.92,470.286,268.17,470.286z"/>
			</g>
			<path id="XMLID_18_" style="fill:#112129;" d="M281.595,466.547c-0.295-0.116-0.805-0.309-1.382-0.237
				c-0.551,0.069-0.844,0.341-0.844,1.007v0.866h2.228v1.717h-2.228v5.455h-1.932v-5.455h-1.34v-1.717h1.34v-0.888
				c0-1.68,0.896-2.783,2.568-2.783c0.643,0,1.157,0.122,1.59,0.308L281.595,466.547z"/>
			<path id="XMLID_16_" style="fill:#112129;" d="M286.298,469.879c-0.177-0.03-0.358-0.046-0.526-0.046
				c-0.896,0-1.51,0.548-1.51,1.614v3.908h-1.932v-7.172h1.873v0.785c0.451-0.673,1.14-0.977,2.021-0.977
				c0.414,0,0.848,0.128,1.094,0.337L286.298,469.879z"/>
			<path id="XMLID_13_" style="fill:#112129;" d="M293.965,471.757c0,0.222-0.015,0.489-0.037,0.651h-5.085
				c0.207,1.036,0.933,1.488,1.843,1.488c0.622,0,1.295-0.252,1.813-0.688l1.132,1.243c-0.814,0.748-1.85,1.088-3.057,1.088
				c-2.198,0-3.723-1.495-3.723-3.753c0-2.258,1.48-3.797,3.627-3.797C292.544,467.99,293.958,469.522,293.965,471.757z
				 M288.851,471.091h3.175c-0.177-0.918-0.733-1.436-1.562-1.436C289.554,469.655,289.021,470.203,288.851,471.091z"/>
			<path id="XMLID_10_" style="fill:#112129;" d="M301.618,471.757c0,0.222-0.015,0.489-0.037,0.651h-5.085
				c0.207,1.036,0.933,1.488,1.843,1.488c0.622,0,1.295-0.252,1.813-0.688l1.132,1.243c-0.814,0.748-1.85,1.088-3.057,1.088
				c-2.198,0-3.723-1.495-3.723-3.753c0-2.258,1.48-3.797,3.627-3.797C300.197,467.99,301.611,469.522,301.618,471.757z
				 M296.504,471.091h3.175c-0.178-0.918-0.733-1.436-1.562-1.436C297.207,469.655,296.674,470.203,296.504,471.091z"/>
			<path id="XMLID_7_" style="fill:#112129;" d="M309.964,471.764c0,2.154-1.495,3.775-3.471,3.775
				c-0.962,0-1.643-0.378-2.109-0.933v3.708h-1.924v-10.133h1.887v0.792c0.466-0.585,1.155-0.984,2.139-0.984
				C308.469,467.99,309.964,469.61,309.964,471.764z M304.287,471.764c0,1.132,0.747,1.976,1.843,1.976
				c1.14,0,1.85-0.881,1.85-1.976c0-1.095-0.71-1.976-1.85-1.976C305.035,469.788,304.287,470.632,304.287,471.764z"/>
			<path id="XMLID_4_" style="fill:#112129;" d="M313.068,465.836c0,0.696-0.54,1.229-1.236,1.229c-0.696,0-1.229-0.533-1.229-1.229
				c0-0.696,0.533-1.243,1.229-1.243C312.527,464.592,313.068,465.14,313.068,465.836z M312.809,475.354h-1.932v-7.172h1.932
				V475.354z"/>
			<path id="XMLID_2_" style="fill:#112129;" d="M316.032,470.736l2.701-2.554h2.368l-3.479,3.375l3.501,3.797h-2.376l-2.716-2.901
				v2.901H314.1v-10.658h1.932V470.736z"/>
		</g>
		<g>
			<path style="fill:#112129;" d="M184.412,475.289v-1.055c-0.527,0.718-1.391,1.23-2.387,1.23c-1.846,0-3.149-1.406-3.149-3.706
				c0-2.256,1.289-3.721,3.149-3.721c0.952,0,1.816,0.469,2.387,1.245v-3.765h1.099v9.77H184.412z M184.412,473.37v-3.208
				c-0.395-0.615-1.245-1.143-2.124-1.143c-1.421,0-2.27,1.172-2.27,2.739c0,1.567,0.85,2.724,2.27,2.724
				C183.168,474.483,184.017,473.986,184.412,473.37z"/>
			<path style="fill:#112129;" d="M186.932,471.744c0-2.051,1.465-3.706,3.486-3.706c2.139,0,3.398,1.67,3.398,3.794v0.279h-5.727
				c0.088,1.333,1.025,2.446,2.549,2.446c0.805,0,1.626-0.322,2.182-0.894l0.527,0.718c-0.703,0.703-1.655,1.084-2.812,1.084
				C188.44,475.465,186.932,473.956,186.932,471.744z M190.403,468.947c-1.509,0-2.256,1.274-2.314,2.358h4.643
				C192.718,470.25,192.015,468.947,190.403,468.947z"/>
			<path style="fill:#112129;" d="M194.607,474.351l0.571-0.791c0.469,0.542,1.362,1.011,2.329,1.011c1.084,0,1.67-0.513,1.67-1.216
				c0-1.714-4.38-0.659-4.38-3.281c0-1.098,0.952-2.036,2.636-2.036c1.201,0,2.051,0.454,2.622,1.026l-0.513,0.762
				c-0.424-0.513-1.201-0.894-2.109-0.894c-0.967,0-1.567,0.483-1.567,1.113c0,1.552,4.38,0.527,4.38,3.281
				c0,1.187-0.952,2.138-2.783,2.138C196.306,475.465,195.325,475.113,194.607,474.351z"/>
			<path style="fill:#112129;" d="M201.477,466.471c0-0.41,0.337-0.747,0.732-0.747c0.41,0,0.747,0.337,0.747,0.747
				c0,0.41-0.337,0.732-0.747,0.732C201.814,467.203,201.477,466.881,201.477,466.471z M201.667,475.289v-7.075h1.099v7.075H201.667
				z"/>
			<path style="fill:#112129;" d="M204.582,477.105l0.556-0.82c0.586,0.703,1.289,0.967,2.3,0.967c1.172,0,2.27-0.571,2.27-2.124
				v-1.011c-0.513,0.718-1.377,1.26-2.373,1.26c-1.845,0-3.149-1.377-3.149-3.662c0-2.27,1.289-3.677,3.149-3.677
				c0.952,0,1.802,0.469,2.373,1.245v-1.069h1.098v6.87c0,2.344-1.641,3.076-3.369,3.076
				C206.237,478.16,205.417,477.926,204.582,477.105z M209.709,473.253v-3.091c-0.381-0.615-1.23-1.143-2.109-1.143
				c-1.421,0-2.27,1.128-2.27,2.695c0,1.553,0.849,2.695,2.27,2.695C208.478,474.41,209.328,473.868,209.709,473.253z"/>
			<path style="fill:#112129;" d="M217.413,475.289v-4.629c0-1.245-0.63-1.641-1.582-1.641c-0.865,0-1.685,0.527-2.095,1.099v5.17
				h-1.099v-7.075h1.099v1.025c0.498-0.586,1.465-1.201,2.519-1.201c1.48,0,2.256,0.747,2.256,2.285v4.966H217.413z"/>
			<path style="fill:#112129;" d="M219.932,471.744c0-2.051,1.465-3.706,3.486-3.706c2.139,0,3.398,1.67,3.398,3.794v0.279h-5.727
				c0.088,1.333,1.025,2.446,2.549,2.446c0.806,0,1.626-0.322,2.183-0.894l0.527,0.718c-0.703,0.703-1.655,1.084-2.812,1.084
				C221.441,475.465,219.932,473.956,219.932,471.744z M223.404,468.947c-1.509,0-2.256,1.274-2.314,2.358h4.643
				C225.718,470.25,225.015,468.947,223.404,468.947z"/>
			<path style="fill:#112129;" d="M233.35,475.289v-1.055c-0.527,0.718-1.392,1.23-2.388,1.23c-1.846,0-3.149-1.406-3.149-3.706
				c0-2.256,1.289-3.721,3.149-3.721c0.952,0,1.817,0.469,2.388,1.245v-3.765h1.098v9.77H233.35z M233.35,473.37v-3.208
				c-0.396-0.615-1.245-1.143-2.124-1.143c-1.421,0-2.27,1.172-2.27,2.739c0,1.567,0.849,2.724,2.27,2.724
				C232.105,474.483,232.954,473.986,233.35,473.37z"/>
			<path style="fill:#112129;" d="M239.692,475.289v-9.77h1.098v3.765c0.572-0.776,1.421-1.245,2.388-1.245
				c1.845,0,3.149,1.465,3.149,3.721c0,2.299-1.304,3.706-3.149,3.706c-0.996,0-1.86-0.513-2.388-1.23v1.055H239.692z
				 M242.9,474.483c1.436,0,2.285-1.157,2.285-2.724c0-1.568-0.85-2.739-2.285-2.739c-0.864,0-1.728,0.527-2.109,1.143v3.208
				C241.171,473.986,242.036,474.483,242.9,474.483z"/>
			<path style="fill:#112129;" d="M247.528,477.061c0.161,0.073,0.425,0.117,0.601,0.117c0.483,0,0.805-0.161,1.055-0.747
				l0.469-1.069l-2.959-7.148h1.187l2.358,5.8l2.344-5.8h1.201l-3.545,8.51c-0.425,1.025-1.143,1.421-2.08,1.435
				c-0.234,0-0.601-0.044-0.806-0.103L247.528,477.061z"/>
		</g>
	</g>
</g>
</svg>
